<svg width="37" height="31" viewBox="0 0 37 31" fill="none" xmlns="http://www.w3.org/2000/svg">
<path fill-rule="evenodd" clip-rule="evenodd" d="M4.625 0.998047C2.07068 0.998047 0 3.23662 0 5.99805V25.998C0 28.7595 2.07068 30.998 4.625 30.998H32.375C34.9293 30.998 37 28.7595 37 25.998V10.998C37 8.23662 34.9293 5.99805 32.375 5.99805H20.8125L16.1875 0.998047H4.625ZM20.8125 13.498C20.8125 12.1173 19.7772 10.998 18.5 10.998C17.2228 10.998 16.1875 12.1173 16.1875 13.498V15.998H13.875C12.5978 15.998 11.5625 17.1173 11.5625 18.498C11.5625 19.8788 12.5978 20.998 13.875 20.998H16.1875V23.498C16.1875 24.8788 17.2228 25.998 18.5 25.998C19.7772 25.998 20.8125 24.8788 20.8125 23.498V20.998H23.125C24.4022 20.998 25.4375 19.8788 25.4375 18.498C25.4375 17.1173 24.4022 15.998 23.125 15.998H20.8125V13.498Z" fill="#9944EE"/>
</svg>
